Coordinates
version=1
nRows=11
nColumns=63
inDegrees=yes

Units are S.I. units (second, meters, Newtons, ...)
If the header above contains a line with 'inDegrees', this indicates whether rotational values are in degrees (yes) or radians (no).

endheader
time	pelvis_tilt	pelvis_list	pelvis_rotation	pelvis_tx	pelvis_ty	pelvis_tz	hip_flexion_r	hip_adduction_r	hip_rotation_r	knee_angle_r	knee_angle_r_beta	ankle_angle_r	subtalar_angle_r	mtp_angle_r	hip_flexion_l	hip_adduction_l	hip_rotation_l	knee_angle_l	knee_angle_l_beta	ankle_angle_l	subtalar_angle_l	mtp_angle_l	L5_S1_Flex_Ext	L5_S1_Lat_Bending	L5_S1_axial_rotation	L4_L5_Flex_Ext	L4_L5_Lat_Bending	L4_L5_axial_rotation	L3_L4_Flex_Ext	L3_L4_Lat_Bending	L3_L4_axial_rotation	L2_L3_Flex_Ext	L2_L3_Lat_Bending	L2_L3_axial_rotation	L1_L2_Flex_Ext	L1_L2_Lat_Bending	L1_L2_axial_rotation	L1_T12_Flex_Ext	L1_T12_Lat_Bending	L1_T12_axial_rotation	Abs_r3	Abs_r2	Abs_r1	Abs_t1	Abs_t2	neck_flexion	neck_bending	neck_rotation	arm_flex_r	arm_add_r	arm_rot_r	elbow_flex_r	pro_sup_r	wrist_flex_r	wrist_dev_r	arm_flex_l	arm_add_l	arm_rot_l	elbow_flex_l	pro_sup_l	wrist_flex_l	wrist_dev_l
5.745763	-1.857142	-4.500487	92.284386	0.154649	0.468191	1.065478	0.752860	-3.630499	-10.690309	3.244426	0.056626	25.853856	9.726639	0.000000	2.730605	2.467185	14.752318	3.562296	0.062174	15.371384	-15.429805	0.000000	0.085903	-0.329476	0.661673	0.159531	-0.438203	0.703028	0.141131	-0.801088	0.703028	0.098179	-0.801088	0.578964	0.079770	-0.671868	0.537609	0.049085	-0.510359	0.496255	0.613599	-3.727101	3.680027	0.000000	0.000000	26.958570	1.389040	-6.134192	-10.811412	-8.836623	-22.680463	29.325276	68.605094	-4.154845	-9.779379	13.671684	-15.745947	111.346402	11.060921	20.476829	-32.454056	2.320891
5.762712	-1.867513	-4.370451	92.281098	0.154464	0.467869	1.065674	0.618658	-3.689315	-11.102364	3.370589	0.058828	25.969596	10.148078	0.000000	2.610761	2.462127	15.495082	3.350003	0.058469	15.921496	-15.332926	0.000000	0.075669	-0.328800	0.731272	0.140524	-0.437304	0.776977	0.124316	-0.799443	0.776977	0.086482	-0.799443	0.639863	0.070266	-0.670488	0.594159	0.043237	-0.509311	0.548454	0.540494	-3.719447	4.067116	0.000000	0.000000	26.925998	0.860498	-6.475451	-10.983850	-9.233619	-20.579930	28.381437	69.300976	-3.895043	-10.298310	13.648061	-15.754039	110.812333	11.077002	20.280912	-32.071031	1.722398
5.779661	-1.876291	-4.231503	92.277052	0.154307	0.467574	1.065806	0.472637	-3.744425	-11.540208	3.476165	0.060671	26.130378	10.666546	0.000000	2.475363	2.451711	16.187616	3.117544	0.054411	16.471507	-15.258645	0.000000	0.068042	-0.328012	0.793935	0.126361	-0.436256	0.843556	0.111786	-0.797528	0.843556	0.077765	-0.797528	0.694694	0.063184	-0.668882	0.645073	0.038879	-0.508090	0.595452	0.486018	-3.710534	4.415631	0.000000	0.000000	26.924656	0.288943	-6.787532	-11.094508	-9.646654	-18.168723	27.479048	69.543242	-3.712939	-10.653656	13.619275	-15.761946	110.455492	11.081305	20.003978	-31.718480	1.026710
5.796610	-1.881665	-4.086179	92.296258	0.154171	0.467311	1.065895	0.307282	-3.786887	-11.910147	3.535463	0.061705	26.309065	11.129758	0.000000	2.358936	2.423348	16.539462	2.936971	0.051260	17.176526	-14.783651	0.000000	0.062521	-0.327540	0.844717	0.116107	-0.435628	0.897512	0.102715	-0.796381	0.897512	0.071455	-0.796381	0.739128	0.058057	-0.667920	0.686333	0.035724	-0.507360	0.633538	0.446580	-3.705199	4.698064	0.000000	0.000000	26.974225	-0.305801	-7.097327	-11.134709	-10.052426	-15.533273	26.698216	69.274037	-3.749943	-10.725677	13.616758	-15.757861	110.389401	11.063842	19.968122	-31.400143	0.562599
5.813559	-1.879012	-3.941553	92.318185	0.154036	0.467081	1.065904	0.137722	-3.816580	-12.177684	3.566020	0.062239	26.500991	11.516448	0.000000	2.218973	2.389585	16.974991	2.709774	0.047294	17.764461	-14.591313	0.000000	0.061215	-0.325053	0.880296	0.113682	-0.432320	0.935315	0.100569	-0.790333	0.935315	0.069962	-0.790333	0.770259	0.056844	-0.662848	0.715241	0.034978	-0.503507	0.660222	0.437250	-3.677062	4.895945	0.000000	0.000000	27.045502	-0.902400	-7.278865	-11.103062	-10.509784	-12.575232	25.968803	68.753407	-3.850695	-10.831821	13.577458	-15.764818	110.063153	11.054226	19.896687	-31.057038	-0.043569
5.830508	-1.863291	-3.793482	92.329393	0.153923	0.466882	1.065876	-0.034529	-3.829199	-12.408036	3.577312	0.062436	26.707917	11.912564	0.000000	2.069263	2.338283	17.311500	2.482030	0.043320	18.324145	-14.417540	0.000000	0.061941	-0.319945	0.906193	0.115030	-0.425527	0.962830	0.101762	-0.777914	0.962830	0.070792	-0.777914	0.792919	0.057518	-0.652431	0.736281	0.035393	-0.495594	0.679644	0.442435	-3.619280	5.039971	0.000000	0.000000	27.138108	-1.488413	-7.355705	-11.010303	-11.021194	-9.398887	25.308769	68.249476	-4.025491	-10.970419	13.547043	-15.762910	109.743280	11.042857	19.921777	-30.695618	-0.591136
5.847458	-1.843109	-3.643616	92.352872	0.153787	0.466707	1.065828	-0.219540	-3.833242	-12.592162	3.560083	0.062135	26.876398	12.254141	0.000000	1.914765	2.282300	17.602885	2.267465	0.039575	18.841269	-14.260264	0.000000	0.063377	-0.313055	0.926032	0.117697	-0.416363	0.983909	0.104122	-0.761162	0.983909	0.072434	-0.761162	0.810278	0.058852	-0.638382	0.752401	0.036214	-0.484922	0.694524	0.452696	-3.541342	5.150313	0.000000	0.000000	27.239618	-2.062056	-7.363544	-10.913660	-11.526733	-6.297614	24.855782	67.572546	-4.313379	-10.918222	13.549897	-15.735550	109.536812	11.034031	20.012844	-30.404554	-1.023975
5.864407	-1.806228	-3.500885	92.378943	0.153641	0.466543	1.065806	-0.389258	-3.820745	-12.745959	3.561748	0.062164	27.010686	12.534232	0.000000	1.768086	2.212591	17.876411	2.075223	0.036219	19.292147	-14.170412	0.000000	0.065040	-0.303286	0.938166	0.120785	-0.403371	0.996802	0.106854	-0.737411	0.996802	0.074334	-0.737411	0.820895	0.060396	-0.618462	0.762260	0.037164	-0.469791	0.703625	0.464572	-3.430837	5.217799	0.000000	0.000000	27.345082	-2.576365	-7.328449	-10.791563	-12.061790	-3.119233	24.519721	67.004844	-4.642084	-10.892559	13.580972	-15.687412	109.447136	11.016658	20.140182	-30.099436	-1.377719
5.881356	-1.764810	-3.365073	92.401082	0.153455	0.466381	1.065755	-0.562325	-3.801831	-12.827698	3.555353	0.062053	27.065088	12.685857	0.000000	1.623496	2.142140	18.128316	1.909313	0.033324	19.680940	-14.102722	0.000000	0.065672	-0.290705	0.948122	0.121960	-0.386638	1.007379	0.107893	-0.706820	1.007379	0.075057	-0.706820	0.829606	0.060983	-0.592806	0.770349	0.037525	-0.450302	0.711091	0.469092	-3.288513	5.273168	0.000000	0.000000	27.450699	-3.053958	-7.202212	-10.723918	-12.543895	-0.519788	24.411618	66.825773	-4.969397	-10.657091	13.613615	-15.612139	109.323558	11.001651	20.606746	-29.937288	-1.627193
5.898305	-1.717786	-3.251082	92.426168	0.153242	0.466230	1.065731	-0.702114	-3.782743	-12.942580	3.590849	0.062672	27.052501	12.806124	0.000000	1.500544	2.072891	18.368343	1.771422	0.030917	19.983612	-14.082188	0.000000	0.065190	-0.276523	0.949781	0.121064	-0.367776	1.009142	0.107101	-0.672338	1.009142	0.074506	-0.672338	0.831058	0.060535	-0.563886	0.771697	0.037250	-0.428334	0.712335	0.465646	-3.128085	5.282395	0.000000	0.000000	27.548632	-3.420322	-7.023109	-10.604558	-13.056484	2.274119	24.328767	66.606222	-5.338787	-10.597563	13.637425	-15.519027	109.457651	10.943913	20.993839	-29.760669	-1.907306
5.915254	-1.669299	-3.170479	92.445750	0.153065	0.466064	1.065705	-0.801069	-3.763170	-13.057757	3.657874	0.063842	26.982921	12.878011	0.000000	1.410815	2.005566	18.585129	1.665902	0.029075	20.218541	-14.096410	0.000000	0.064551	-0.262365	0.947599	0.119877	-0.348946	1.006824	0.106050	-0.637915	1.006824	0.073775	-0.637915	0.829149	0.059942	-0.535015	0.769924	0.036884	-0.406404	0.710699	0.461078	-2.967929	5.270262	0.000000	0.000000	27.633521	-3.641481	-6.801863	-10.456203	-13.518506	4.983735	24.317436	66.252246	-5.738518	-10.576902	13.653600	-15.432626	109.882099	10.886293	21.332968	-29.683419	-2.156337
